<svg id="Isolation_Mode" data-name="Isolation Mode" xmlns="http://www.w3.org/2000/svg" viewBox="0 0 2038 265"><defs><style>.cls-1{fill:#00c5ff;}.cls-2{fill:#007;}.cls-3{fill:#003ea6;}.cls-4{fill:#009eff;}.cls-5{fill:#006cff;}.cls-6{fill:#00d7ff;}.cls-7{fill:#0000bf;}.cls-8,.cls-9{fill:#fff;}.cls-9{font-size:67.81px;font-family:CircularStd-Book, Circular Std;letter-spacing:0.2em;}.cls-10{letter-spacing:0.2em;}.cls-11{letter-spacing:0.2em;}.cls-12{letter-spacing:0.2em;}.cls-13{letter-spacing:0.22em;}.cls-14{letter-spacing:0.11em;}.cls-15{letter-spacing:0.2em;}.cls-16{letter-spacing:0.2em;}.cls-17{letter-spacing:0.22em;}</style></defs><title>corp-lockup-w</title><polygon class="cls-1" points="233.41 0.77 117.17 0.77 1 132.2 117.17 263.55 233.41 263.48 349.66 132.15 233.41 0.77"/><polygon class="cls-2" points="117.17 263.55 175.31 197.81 233.41 263.48 117.17 263.55"/><polygon class="cls-3" points="175.31 197.81 117.17 263.55 1 132.2 117.21 132.2 175.31 197.81"/><polygon class="cls-4" points="175.31 66.48 117.21 132.2 1 132.2 117.17 0.77 175.31 66.48"/><polygon class="cls-5" points="233.41 132.2 175.31 197.81 117.21 132.2 175.31 66.48 233.41 132.2"/><polygon class="cls-6" points="349.66 132.15 233.41 132.2 175.31 66.48 233.41 0.77 349.66 132.15"/><polygon class="cls-7" points="349.66 132.15 233.41 263.48 175.31 197.81 233.41 132.2 349.66 132.15"/><polygon class="cls-1" points="117.17 0.77 233.41 0.77 175.31 66.48 117.17 0.77"/><path class="cls-8" d="M567.28,5.92c-9.87,0-19.13,9.26-24.56,23.76l-37.25,99.45c-.4,1-4,1-4.43,0L449.7,20.22C445.07,11,440.64,5.92,434.4,5.92c-.81,0-.81-2.42,0-2.42,4.63,0,4.63.6,14.7.6,22.35,0,31-.6,37.45-.6.81,0,.81,2.42,0,2.42-11.48,0-15.7,7-10.47,17.92L510.9,98.13l26.17-69.05c4.83-13.09.6-23.15-12.48-23.15-.81,0-.81-2.42,0-2.42,7.65,0,13.49.6,25,.6,7.45,0,11.07-.6,17.72-.6C568.08,3.51,568.08,5.92,567.28,5.92Z"/><path class="cls-8" d="M640.87,126.92c.81,0,.81,2.42,0,2.42-7,0-15.5-.4-25.77-.4-9.66,0-18.72.4-25.77.4-.6,0-.6-2.42,0-2.42,12.28,0,14.7-2.21,14.7-13.89V19.81c0-11.48-2.42-13.89-14.7-13.89-.6,0-.6-2.42,0-2.42,7,0,16.11.6,25.77.6,10.27,0,18.92-.6,25.77-.6.81,0,.81,2.42,0,2.42-12.28,0-14.29,2.82-14.29,14.29V113C626.58,124.7,628.39,126.92,640.87,126.92Z"/><path class="cls-8" d="M716.47,56.86c15.1,9.66,30.6,19.73,30.6,39.06,0,21.34-18.72,35.84-43.49,35.84-12.08,0-27.58-4-32.21-8.05-1.21-.81-2-1.41-2-3.83l-.6-32c-.2-1.21,1.81-1.41,2.21-.4,8.25,16.91,18.72,39.26,37.85,39.26,9.26,0,18.52-4,18.52-19.13,0-18.92-14.7-28.39-29-37.85-14.09-9.26-28-18.12-28-36,0-22.55,22.15-32.41,42.28-32.41,9.66,0,20.33,2,26,4.43,2.62,1.21,3,2.42,3,4V39.34c0,.81-1.81,1.41-2.21.6C736.2,33.3,728.75,5.72,707.21,5.72c-10.07,0-18.32,5.84-18.32,18.12C688.88,39.14,702.37,47.8,716.47,56.86Z"/><path class="cls-8" d="M822.82,126.92c.81,0,.81,2.42,0,2.42-7,0-15.5-.4-25.77-.4-9.66,0-18.72.4-25.77.4-.6,0-.6-2.42,0-2.42,12.28,0,14.7-2.21,14.7-13.89V19.81c0-11.48-2.42-13.89-14.7-13.89-.6,0-.6-2.42,0-2.42,7,0,16.11.6,25.77.6,10.27,0,18.92-.6,25.77-.6.81,0,.81,2.42,0,2.42-12.28,0-14.29,2.82-14.29,14.29V113C808.53,124.7,810.34,126.92,822.82,126.92Z"/><path class="cls-8" d="M845.49,66.52c0-43.69,38.25-65.23,70.87-65.23C956,1.29,980,32.7,980,65.11c0,37.45-32.41,66.64-70.67,66.64C870.65,131.75,845.49,102,845.49,66.52Zm109.72,4.43c0-36.84-17.72-64.22-46.91-64.22-24.56,0-38.05,19.73-38.05,52.34,0,39.46,19.33,67.65,45.7,67.65C938.3,126.72,955.21,106.79,955.21,70.95Z"/><path class="cls-8" d="M1138.79,5.92c-10.67,0-17.31,9.06-17.31,23.35V132.35c0,.81-1.81,1-2.21.6L1024.84,25.45v78.31c0,14.29,6.24,23.15,16.71,23.15.6,0,.6,2.42,0,2.42-5.84,0-12.08-.4-19.53-.4-8.05,0-15.9.4-22.35.4-.81,0-.81-2.42,0-2.42,11.68,0,19.13-8.86,19.13-23.15V18.6c-9.06-9.86-14.7-12.68-21.14-12.68-.6,0-.6-2.42,0-2.42,5.23,0,11.27.4,16.11.4,9.66,0,17.92-.4,22.15-.4,3.42,0,3.62,2.82,10.07,10.47l69.66,80.33v-65c0-14.29-6.24-23.35-16.71-23.35-.6,0-.6-2.42,0-2.42,5.84,0,12.08.6,19.53.6,7.25,0,14.5-.6,20.33-.6C1139.39,3.51,1139.39,5.92,1138.79,5.92Z"/><path class="cls-8" d="M1279.1,8.34c2.42,1.41,2.62,1.81,2.82,4.63l2.42,22.75c0,.6-2,1-2.21.2-6.24-21.54-23.76-30.2-46.1-30.2-30.8,0-50.73,21.74-50.73,54.16,0,38.25,26,69.05,57.18,69.05,18.72,0,33.62-9.87,41.47-32.41.2-.81,2.42-.4,2.42.2l-3,22.75c-.4,3.22-.6,3.83-3,4.63a96.81,96.81,0,0,1-38.25,7.65c-51.34,0-71.87-35.43-71.87-66.44,0-38.25,35.43-64,73.69-64C1256.15,1.29,1271.05,3.71,1279.1,8.34Z"/><path class="cls-8" d="M1446.82,129.33c-7.45,0-15.9-.81-23.15-.81-8.46,0-13.89.81-21.34.81-1.21,0-1.21-2.42,0-2.42,14.29,0,17.11-3.22,11.68-14.9L1390.65,62.7H1352.8l-17.31,41.07c-7,16.51-.81,23.15,16.91,23.15,1.21,0,1.21,2.42,0,2.42-8.05,0-13.29-.81-23.76-.81-9.66,0-13.89.81-22.15.81-1.21,0-1.21-2.42,0-2.42,10.87,0,16.31-5,24.76-25L1373.74,1.69c.2-.6,2.42-.81,2.62,0l47.51,100.06c9.46,20.13,14.5,25.17,23,25.17C1448,126.92,1448,129.33,1446.82,129.33Zm-58.18-70.87-17.92-38.05-16.11,38.05Z"/><path class="cls-8" d="M1524.06,126.92c.81,0,.81,2.42,0,2.42-8.66,0-18.52-.4-30.4-.4-8.86,0-17.11.4-23.76.4-.6,0-.6-2.42,0-2.42,14.7,0,17.31-2.21,17.31-13.89V19.81c0-11.48-2.62-13.89-17.31-13.89-.6,0-.6-2.42,0-2.42,6.64,0,14.7.6,23.56.6,6.84,0,17.72-1.21,28.19-1.21,22.75,0,40.47,9.66,40.67,33,.2,28.19-24,40.67-44.29,40.67a39.07,39.07,0,0,1-9.87-1c-1-.2-.4-2.82.4-2.62a30.75,30.75,0,0,0,7.25.81c16.51,0,31.61-10.67,31.61-33.82,0-21.74-13.49-34-30.8-34-13.29,0-16.51.81-16.51,14.29v92C1500.11,124.3,1503.33,126.92,1524.06,126.92Z"/><path class="cls-8" d="M1629.72,126.92c.81,0,.81,2.42,0,2.42-6.44,0-14.29-.4-24-.4-8.86,0-17.31.4-23.76.4-.81,0-.81-2.42,0-2.42,14.7,0,17.31-2.21,17.31-13.89V19.81c0-11.48-2.62-13.89-17.31-13.89-.81,0-.81-2.42,0-2.42,6.44,0,14.9.6,23.76.6,9.66,0,17.72-.6,24-.6.81,0,.81,2.42,0,2.42-14.7,0-17.11,2.82-17.11,14.29V113C1612.6,124.7,1614.82,126.92,1629.72,126.92Z"/><path class="cls-8" d="M1656.87,35.52c-.2.6-2.42.6-2.42-.2,1-6.64,2.82-27.18,2.82-36.24,0-1.21,2.42-1.41,2.42,0,0,4,6.85,4.43,10.67,4.43,11.48.4,25.37.6,40.47.6,18.92,0,28.59-.6,38.86-.6,9.06,0,13.89-.81,15.3-5,.2-1,2.21-1,2.21,0-.8,8.05-1.81,30.6-1.81,36.84,0,.81-2.21.81-2.42,0-.8-20.74-7.85-28.19-25.77-28.19-16.91,0-19.53,1.21-19.53,13.09V113c0,11.68,2.62,13.89,19.53,13.89.81,0,.81,2.42,0,2.42-7.25,0-15.7-.4-26.37-.4-9.87,0-18.92.4-26.17.4-.6,0-.6-2.42,0-2.42,16.71,0,19.73-2.21,19.73-13.89V19.81c0-12.08-3-12.68-19.53-12.68C1667.94,7.13,1660.29,15,1656.87,35.52Z"/><path class="cls-8" d="M1913.31,129.33c-7.45,0-15.9-.81-23.15-.81-8.46,0-13.89.81-21.34.81-1.21,0-1.21-2.42,0-2.42,14.29,0,17.11-3.22,11.68-14.9L1857.14,62.7h-37.85L1802,103.77c-7,16.51-.81,23.15,16.91,23.15,1.21,0,1.21,2.42,0,2.42-8.05,0-13.29-.81-23.76-.81-9.66,0-13.89.81-22.15.81-1.21,0-1.21-2.42,0-2.42,10.87,0,16.31-5,24.76-25L1840.23,1.69c.2-.6,2.42-.81,2.62,0l47.51,100.06c9.46,20.13,14.5,25.17,23,25.17C1914.52,126.92,1914.52,129.33,1913.31,129.33Zm-58.18-70.87-17.92-38.05L1821.1,58.47Z"/><path class="cls-8" d="M1966,112.22c0,10.87,2.42,12.89,16.31,12.89H2004c15.7,0,24.76-10.67,27.38-26.78,0-.6,2.42-.4,2.42.4a233.42,233.42,0,0,0-2,27.58c0,2.21-.6,3-3,3h-93c-.6,0-.6-2.42,0-2.42,14.7,0,17.11-2.21,17.11-13.89V19.81c0-11.48-2.42-13.89-17.11-13.89-.6,0-.6-2.42,0-2.42,6.44,0,14.7.6,23.56.6,9.46,0,17.51-.6,23.76-.6.81,0,.81,2.42,0,2.42C1968.39,5.92,1966,8.54,1966,20Z"/><text class="cls-9" transform="translate(924.24 255.02) scale(1 0.97)">C<tspan class="cls-10" x="64.08" y="0">O</tspan><tspan class="cls-11" x="131.97" y="0">R</tspan><tspan class="cls-12" x="187.41" y="0">P</tspan><tspan class="cls-10" x="241.75" y="0">O</tspan><tspan class="cls-13" x="309.63" y="0">R</tspan><tspan class="cls-14" x="366.51" y="0">A</tspan><tspan class="cls-15" x="421.25" y="0">T</tspan><tspan class="cls-16" x="474.73" y="0">I</tspan><tspan class="cls-10" x="507.17" y="0">O</tspan><tspan class="cls-17" x="575.06" y="0">N</tspan></text><rect class="cls-8" x="437.45" y="230.36" width="445.31" height="5.5"/><rect class="cls-8" x="1591.62" y="230.36" width="445.31" height="5.5"/></svg>