<svg xmlns="http://www.w3.org/2000/svg" viewBox="0 0 1024 1024" width="1024" height="1024">
  <title>
    Vision Capital
  </title>
  <path fill="#007" d="M341.16 926.43l170.65-207.28 170.77 207.28H341.16z"/>
  <path fill="#003ea6" d="M511.94 719.08L341.16 926.43 0 512.12h341.29l170.65 206.96z"/>
  <path fill="#009eff" d="M511.94 304.85L341.29 512.12H0L341.16 97.57l170.78 207.28z"/>
  <path fill="#006cff" d="M682.58 512.12L511.94 719.08 341.29 512.12l170.65-207.27 170.64 207.27z"/>
  <path fill="#00d7ff" d="M1024 511.96l-.13.16H682.58l.13-.16-170.77-207.11L682.58 97.57 1024 511.96z"/>
  <path fill="#0000bf" d="M1023.87 512.12L682.58 926.19 511.94 719.08l170.64-206.96h341.29z"/>
  <path fill="#00c5ff" d="M341.16 97.73h341.42L511.87 304.69 341.16 97.73z"/>
</svg>