<svg id="Isolation_Mode" data-name="Isolation Mode" xmlns="http://www.w3.org/2000/svg" viewBox="0 0 2040 268"><defs><style>.cls-1{fill:#00c5ff;}.cls-2{fill:#007;}.cls-3{fill:#003ea6;}.cls-4{fill:#009eff;}.cls-5{fill:#006cff;}.cls-6{fill:#00d7ff;}.cls-7{fill:#0000bf;}.cls-8{fill:#2f5dd6;}</style></defs><title>lockup</title><polygon class="cls-1" points="234.41 2.77 118.17 2.77 2 134.2 118.17 265.55 234.41 265.48 350.66 134.15 234.41 2.77"/><polygon class="cls-2" points="118.17 265.55 176.31 199.81 234.41 265.48 118.17 265.55"/><polygon class="cls-3" points="176.31 199.81 118.17 265.55 2 134.2 118.21 134.2 176.31 199.81"/><polygon class="cls-4" points="176.31 68.48 118.21 134.2 2 134.2 118.17 2.77 176.31 68.48"/><polygon class="cls-5" points="234.41 134.2 176.31 199.81 118.21 134.2 176.31 68.48 234.41 134.2"/><polygon class="cls-6" points="350.66 134.15 234.41 134.2 176.31 68.48 234.41 2.77 350.66 134.15"/><polygon class="cls-7" points="350.66 134.15 234.41 265.48 176.31 199.81 234.41 134.2 350.66 134.15"/><polygon class="cls-1" points="118.17 2.77 234.41 2.77 176.31 68.48 118.17 2.77"/><path d="M568.28,7.92c-9.87,0-19.13,9.26-24.56,23.76l-37.25,99.45c-.4,1-4,1-4.43,0L450.7,22.22C446.07,13,441.64,7.92,435.4,7.92c-.81,0-.81-2.42,0-2.42,4.63,0,4.63.6,14.7.6,22.35,0,31-.6,37.45-.6.81,0,.81,2.42,0,2.42-11.48,0-15.7,7-10.47,17.92l34.83,74.29,26.17-69.05c4.83-13.09.6-23.15-12.48-23.15-.81,0-.81-2.42,0-2.42,7.65,0,13.49.6,25,.6,7.45,0,11.07-.6,17.72-.6C569.08,5.51,569.08,7.92,568.28,7.92Z"/><path d="M641.87,128.92c.81,0,.81,2.42,0,2.42-7,0-15.5-.4-25.77-.4-9.66,0-18.72.4-25.77.4-.6,0-.6-2.42,0-2.42,12.28,0,14.7-2.21,14.7-13.89V21.81c0-11.48-2.42-13.89-14.7-13.89-.6,0-.6-2.42,0-2.42,7,0,16.11.6,25.77.6,10.27,0,18.92-.6,25.77-.6.81,0,.81,2.42,0,2.42-12.28,0-14.29,2.82-14.29,14.29V115C627.58,126.7,629.39,128.92,641.87,128.92Z"/><path d="M717.47,58.86c15.1,9.66,30.6,19.73,30.6,39.06,0,21.34-18.72,35.84-43.49,35.84-12.08,0-27.58-4-32.21-8.05-1.21-.81-2-1.41-2-3.83l-.6-32c-.2-1.21,1.81-1.41,2.21-.4,8.25,16.91,18.72,39.26,37.85,39.26,9.26,0,18.52-4,18.52-19.13,0-18.92-14.7-28.39-29-37.85-14.09-9.26-28-18.12-28-36,0-22.55,22.15-32.41,42.28-32.41,9.66,0,20.33,2,26,4.43,2.62,1.21,3,2.42,3,4V41.34c0,.81-1.81,1.41-2.21.6C737.2,35.3,729.75,7.72,708.21,7.72c-10.07,0-18.32,5.84-18.32,18.12C689.88,41.14,703.37,49.8,717.47,58.86Z"/><path d="M823.82,128.92c.81,0,.81,2.42,0,2.42-7,0-15.5-.4-25.77-.4-9.66,0-18.72.4-25.77.4-.6,0-.6-2.42,0-2.42,12.28,0,14.7-2.21,14.7-13.89V21.81c0-11.48-2.42-13.89-14.7-13.89-.6,0-.6-2.42,0-2.42,7,0,16.11.6,25.77.6,10.27,0,18.92-.6,25.77-.6.81,0,.81,2.42,0,2.42-12.28,0-14.29,2.82-14.29,14.29V115C809.53,126.7,811.34,128.92,823.82,128.92Z"/><path d="M846.49,68.52c0-43.69,38.25-65.23,70.87-65.23C957,3.29,981,34.7,981,67.11c0,37.45-32.41,66.64-70.67,66.64C871.65,133.75,846.49,104,846.49,68.52Zm109.72,4.43c0-36.84-17.72-64.22-46.91-64.22-24.56,0-38.05,19.73-38.05,52.34,0,39.46,19.33,67.65,45.7,67.65C939.3,128.72,956.21,108.79,956.21,72.95Z"/><path d="M1139.79,7.92c-10.67,0-17.31,9.06-17.31,23.35V134.35c0,.81-1.81,1-2.21.6L1025.84,27.45v78.31c0,14.29,6.24,23.15,16.71,23.15.6,0,.6,2.42,0,2.42-5.84,0-12.08-.4-19.53-.4-8.05,0-15.9.4-22.35.4-.81,0-.81-2.42,0-2.42,11.68,0,19.13-8.86,19.13-23.15V20.6c-9.06-9.86-14.7-12.68-21.14-12.68-.6,0-.6-2.42,0-2.42,5.23,0,11.27.4,16.11.4,9.66,0,17.92-.4,22.15-.4,3.42,0,3.62,2.82,10.07,10.47l69.66,80.33v-65c0-14.29-6.24-23.35-16.71-23.35-.6,0-.6-2.42,0-2.42,5.84,0,12.08.6,19.53.6,7.25,0,14.5-.6,20.33-.6C1140.39,5.51,1140.39,7.92,1139.79,7.92Z"/><path d="M1280.1,10.34c2.42,1.41,2.62,1.81,2.82,4.63l2.42,22.75c0,.6-2,1-2.21.2-6.24-21.54-23.76-30.2-46.1-30.2-30.8,0-50.73,21.74-50.73,54.16,0,38.25,26,69.05,57.18,69.05,18.72,0,33.62-9.87,41.47-32.41.2-.81,2.42-.4,2.42.2l-3,22.75c-.4,3.22-.6,3.83-3,4.63a96.81,96.81,0,0,1-38.25,7.65c-51.34,0-71.87-35.43-71.87-66.44,0-38.25,35.43-64,73.69-64C1257.15,3.29,1272.05,5.71,1280.1,10.34Z"/><path d="M1447.82,131.33c-7.45,0-15.9-.81-23.15-.81-8.46,0-13.89.81-21.34.81-1.21,0-1.21-2.42,0-2.42,14.29,0,17.11-3.22,11.68-14.9L1391.65,64.7H1353.8l-17.31,41.07c-7,16.51-.81,23.15,16.91,23.15,1.21,0,1.21,2.42,0,2.42-8.05,0-13.29-.81-23.76-.81-9.66,0-13.89.81-22.15.81-1.21,0-1.21-2.42,0-2.42,10.87,0,16.31-5,24.76-25L1374.74,3.69c.2-.6,2.42-.81,2.62,0l47.51,100.06c9.46,20.13,14.5,25.17,23,25.17C1449,128.92,1449,131.33,1447.82,131.33Zm-58.18-70.87-17.92-38.05-16.11,38.05Z"/><path d="M1525.06,128.92c.81,0,.81,2.42,0,2.42-8.66,0-18.52-.4-30.4-.4-8.86,0-17.11.4-23.76.4-.6,0-.6-2.42,0-2.42,14.7,0,17.31-2.21,17.31-13.89V21.81c0-11.48-2.62-13.89-17.31-13.89-.6,0-.6-2.42,0-2.42,6.64,0,14.7.6,23.56.6,6.84,0,17.72-1.21,28.19-1.21,22.75,0,40.47,9.66,40.67,33,.2,28.19-24,40.67-44.29,40.67a39.07,39.07,0,0,1-9.87-1c-1-.2-.4-2.82.4-2.62a30.75,30.75,0,0,0,7.25.81c16.51,0,31.61-10.67,31.61-33.82,0-21.74-13.49-34-30.8-34-13.29,0-16.51.81-16.51,14.29v92C1501.11,126.3,1504.33,128.92,1525.06,128.92Z"/><path d="M1630.72,128.92c.81,0,.81,2.42,0,2.42-6.44,0-14.29-.4-24-.4-8.86,0-17.31.4-23.76.4-.81,0-.81-2.42,0-2.42,14.7,0,17.31-2.21,17.31-13.89V21.81c0-11.48-2.62-13.89-17.31-13.89-.81,0-.81-2.42,0-2.42,6.44,0,14.9.6,23.76.6,9.66,0,17.72-.6,24-.6.81,0,.81,2.42,0,2.42-14.7,0-17.11,2.82-17.11,14.29V115C1613.6,126.7,1615.82,128.92,1630.72,128.92Z"/><path d="M1657.87,37.52c-.2.6-2.42.6-2.42-.2,1-6.64,2.82-27.18,2.82-36.24,0-1.21,2.42-1.41,2.42,0,0,4,6.85,4.43,10.67,4.43,11.48.4,25.37.6,40.47.6,18.92,0,28.59-.6,38.86-.6,9.06,0,13.89-.81,15.3-5,.2-1,2.21-1,2.21,0-.8,8.05-1.81,30.6-1.81,36.84,0,.81-2.21.81-2.42,0-.8-20.74-7.85-28.19-25.77-28.19-16.91,0-19.53,1.21-19.53,13.09V115c0,11.68,2.62,13.89,19.53,13.89.81,0,.81,2.42,0,2.42-7.25,0-15.7-.4-26.37-.4-9.87,0-18.92.4-26.17.4-.6,0-.6-2.42,0-2.42,16.71,0,19.73-2.21,19.73-13.89V21.81c0-12.08-3-12.68-19.53-12.68C1668.94,9.13,1661.29,17,1657.87,37.52Z"/><path d="M1914.31,131.33c-7.45,0-15.9-.81-23.15-.81-8.46,0-13.89.81-21.34.81-1.21,0-1.21-2.42,0-2.42,14.29,0,17.11-3.22,11.68-14.9L1858.14,64.7h-37.85L1803,105.77c-7,16.51-.81,23.15,16.91,23.15,1.21,0,1.21,2.42,0,2.42-8.05,0-13.29-.81-23.76-.81-9.66,0-13.89.81-22.15.81-1.21,0-1.21-2.42,0-2.42,10.87,0,16.31-5,24.76-25L1841.23,3.69c.2-.6,2.42-.81,2.62,0l47.51,100.06c9.46,20.13,14.5,25.17,23,25.17C1915.52,128.92,1915.52,131.33,1914.31,131.33Zm-58.18-70.87-17.92-38.05L1822.1,60.47Z"/><path d="M1967,114.22c0,10.87,2.42,12.89,16.31,12.89H2005c15.7,0,24.76-10.67,27.38-26.78,0-.6,2.42-.4,2.42.4a233.42,233.42,0,0,0-2,27.58c0,2.21-.6,3-3,3h-93c-.6,0-.6-2.42,0-2.42,14.7,0,17.11-2.21,17.11-13.89V21.81c0-11.48-2.42-13.89-17.11-13.89-.6,0-.6-2.42,0-2.42,6.44,0,14.7.6,23.56.6,9.46,0,17.51-.6,23.76-.6.81,0,.81,2.42,0,2.42-14.7,0-17.11,2.62-17.11,14.09Z"/><path class="cls-8" d="M928.29,233.67c0-15.59,11.93-24.27,23.87-24.27,11,0,18.72,5.79,21.16,14.8l-6.17,2.1c-1.83-7-7.12-11-15-11-8.75,0-17.09,6.18-17.09,18.35s8.34,18.42,17.09,18.42c8.21,0,13.36-4.8,15.33-11.18l5.9,2.1c-2.58,8.75-10.17,15-21.22,15C939.75,258,928.29,249.26,928.29,233.67Z"/><path class="cls-8" d="M1016.51,209.4c12.07,0,24.14,8.68,24.14,24.27S1028.58,258,1016.51,258s-24.14-8.75-24.14-24.34S1004.44,209.4,1016.51,209.4Zm0,42.69c9,0,17.36-6.25,17.36-18.42s-8.41-18.35-17.36-18.35-17.36,6.18-17.36,18.35S1007.56,252.09,1016.51,252.09Z"/><path class="cls-8" d="M1077.21,237.95H1070V257h-6.71V210.38h18.1c9.09,0,14.71,6.18,14.71,13.88,0,6.71-4.41,11.91-11.66,13.22L1095.92,257h-7.73Zm3-5.79c5.42,0,9.09-3.09,9.09-7.89s-3.66-8.09-9.09-8.09H1070v16Z"/><path class="cls-8" d="M1125.39,237.95V257h-6.65V210.38h17.5c8.88,0,14.85,6,14.85,13.81s-6,13.75-14.85,13.75Zm9.63-5.79c5.76,0,9.29-3.09,9.29-7.89s-3.53-8.09-9.29-8.09h-9.63v16Z"/><path class="cls-8" d="M1194.17,209.4c12.07,0,24.14,8.68,24.14,24.27S1206.25,258,1194.17,258,1170,249.26,1170,233.67,1182.1,209.4,1194.17,209.4Zm0,42.69c9,0,17.36-6.25,17.36-18.42s-8.41-18.35-17.36-18.35-17.36,6.18-17.36,18.35S1185.22,252.09,1194.17,252.09Z"/><path class="cls-8" d="M1254.87,237.95h-7.19V257H1241V210.38h18.1c9.09,0,14.71,6.18,14.71,13.88,0,6.71-4.41,11.91-11.66,13.22L1273.59,257h-7.73Zm3-5.79c5.42,0,9.09-3.09,9.09-7.89s-3.66-8.09-9.09-8.09h-10.17v16Z"/><path class="cls-8" d="M1325.92,244h-21.29l-5.09,13h-7.12l19.12-46.64h7.66L1338.33,257h-7.19ZM1307,238h16.55l-8.34-20.92Z"/><path class="cls-8" d="M1369.88,216.37V257h-6.65V216.37h-16.07v-6H1386v6Z"/><path class="cls-8" d="M1406.06,257V210.38h6.78V257Z"/><path class="cls-8" d="M1459.6,209.4c12.07,0,24.14,8.68,24.14,24.27S1471.67,258,1459.6,258s-24.14-8.75-24.14-24.34S1447.53,209.4,1459.6,209.4Zm0,42.69c9,0,17.36-6.25,17.36-18.42s-8.41-18.35-17.36-18.35-17.36,6.18-17.36,18.35S1450.65,252.09,1459.6,252.09Z"/><path class="cls-8" d="M1539,257l-26-38v38h-6.65V210.38h8.88l24,35.79V210.38h6.65V257Z"/><rect class="cls-8" x="438.45" y="232.36" width="445.31" height="5.5"/><rect class="cls-8" x="1592.62" y="232.36" width="445.31" height="5.5"/></svg>