<svg xmlns="http://www.w3.org/2000/svg" viewBox="0 0 606 116" width="606" height="116"><defs><style>.cls-1{fill:#ee3e2d;}</style></defs><title>wordmark</title><path class="cls-1" d="M1.53,12.27h0v99.14H102V78.22H43.35a3.41,3.41,0,0,1-3.28-3.47,3.46,3.46,0,0,1,3.28-3.53H99.68V44.9H43.35a3.57,3.57,0,0,1,0-7.12H102V4.59l-93.8,0C4.52,4.61,1.56,8,1.53,12.27Z"/><path class="cls-1" d="M188.43,52.92a1.86,1.86,0,0,1-1.88,1.45,1.69,1.69,0,0,1-1.37-.64l-1.58-2.91h0L158.68,4.59H117c-3.38.34-6,3.58-6.08,7.59h0l-.05,99.22h40.69V63.08a1.89,1.89,0,0,1,1.88-1.73,1.69,1.69,0,0,1,1.54.94l1.53,2.81,26,46.3h46.67V4.59H188.43Z"/><path class="cls-1" d="M422.9,1c-38,0-61.79,22.25-61.79,57s23.78,57,61.79,57,61.67-22.38,61.67-57S460.79,1,422.9,1Zm0,77.95c-10.68,0-20.22-6.87-20.22-21s9.54-21,20.22-21,20.22,6.74,20.22,21S433.46,79,422.9,79Z"/><path class="cls-1" d="M560.87,4.59l-19.2,35.09a1.59,1.59,0,0,1-1.48,1.12,1.56,1.56,0,0,1-1.45-1.12L519.67,4.59H475.93l43.36,74v32.81H561V79L604.48,4.59Z"/><path class="cls-1" d="M325.38,4.59l-22,68.27a2.06,2.06,0,0,1-3.9,0l-8.79-27.19L277.31,4.59H234.21L272.1,111.41h58.49L368.48,4.59Z"/></svg>